<svg width="64" height="32" viewBox="0 0 64 32" fill="none" xmlns="http://www.w3.org/2000/svg">
<g clip-path="url(#clip0_2163_54403)">
<rect width="64" height="32" rx="7" fill="#F9F9F9"/>
<g filter="url(#filter0_d_2163_54403)">
<rect x="3" y="3" width="26" height="26" rx="5" fill="#006CEC"/>
</g>
<g clip-path="url(#clip1_2163_54403)">
<path d="M15.9974 19.3307C17.8383 19.3307 19.3307 17.8383 19.3307 15.9974C19.3307 14.1564 17.8383 12.6641 15.9974 12.6641C14.1564 12.6641 12.6641 14.1564 12.6641 15.9974C12.6641 17.8383 14.1564 19.3307 15.9974 19.3307Z" fill="white"/>
<path d="M8 16H10M16 8V10M22 16H24M16 22V24M10 10L12 12M22 10L20 12M20 20L22 22M12 20L10 22" stroke="white" stroke-linecap="round" stroke-linejoin="round"/>
</g>
<g clip-path="url(#clip2_2163_54403)">
<path d="M50.5437 9.05127C50.6471 9.08889 50.7497 9.12623 50.8515 9.16328C49.5052 9.73189 48.4008 10.7543 47.7302 12.0527C47.0596 13.3511 46.8652 14.8435 47.1808 16.2704C47.4963 17.6973 48.3019 18.9685 49.4575 19.863C50.6131 20.7576 52.0457 21.2189 53.5061 21.1668C52.5877 22.1667 51.415 22.8986 50.1133 23.2843C48.8115 23.67 47.4294 23.6951 46.1145 23.357C44.7996 23.0188 43.6011 22.33 42.647 21.3641C41.6928 20.3983 41.0187 19.1915 40.6966 17.8725C40.3746 16.5536 40.4165 15.1719 40.8181 13.875C41.2197 12.578 41.9658 11.4144 42.9769 10.5082C43.9879 9.60205 45.226 8.98734 46.559 8.72964C47.8921 8.47195 49.2701 8.58095 50.546 9.045L50.5437 9.05127Z" stroke="#006CEC" stroke-linecap="round" stroke-linejoin="round"/>
</g>
</g>
<defs>
<filter id="filter0_d_2163_54403" x="-7" y="-3" width="46" height="46" filterUnits="userSpaceOnUse" color-interpolation-filters="sRGB">
<feFlood flood-opacity="0" result="BackgroundImageFix"/>
<feColorMatrix in="SourceAlpha" type="matrix" values="0 0 0 0 0 0 0 0 0 0 0 0 0 0 0 0 0 0 127 0" result="hardAlpha"/>
<feOffset dy="4"/>
<feGaussianBlur stdDeviation="5"/>
<feComposite in2="hardAlpha" operator="out"/>
<feColorMatrix type="matrix" values="0 0 0 0 0 0 0 0 0 0 0 0 0 0 0 0 0 0 0.05 0"/>
<feBlend mode="normal" in2="BackgroundImageFix" result="effect1_dropShadow_2163_54403"/>
<feBlend mode="normal" in="SourceGraphic" in2="effect1_dropShadow_2163_54403" result="shape"/>
</filter>
<clipPath id="clip0_2163_54403">
<rect width="64" height="32" rx="7" fill="white"/>
</clipPath>
<clipPath id="clip1_2163_54403">
<rect width="20" height="20" fill="white" transform="translate(6 6)"/>
</clipPath>
<clipPath id="clip2_2163_54403">
<rect width="20" height="20" fill="white" transform="translate(38 6)"/>
</clipPath>
</defs>
</svg>
